# xmcd CD database file
#
# Track frame offsets:
#	150
#	11922
#	26345
#	46548
#	60569
#	74528
#	88479
#	103222
#	116777
#	131199
#	144265
#	156454
#	168218
#	181943
#	194763
#	207174
#	218377
#	229367
#	241954
#	253030
#
# Disc length: 3565 seconds
#
# Revision: 1
# Processed by: cddbd v1.5.1PL2 Copyright (c) Steve Scherf et al.
# Submitted via: CDex 1.51
#
DISCID=270deb14
DTITLE=Ella Fitzgerald - Diamond Collection, Volume 2
DYEAR=1900
DGENRE=Jazz
TTITLE0=A Tisket A Tasket
TTITLE1=Holiday In Harlem
TTITLE2=I Want To Be Happy
TTITLE3=Wacky Dust
TTITLE4=Rhythm and Romance
TTITLE5=Bei Mir Bist Du Schon
TTITLE6=The Dipsy Doodle
TTITLE7=We Can't Go On This Way
TTITLE8=Rock It To Me
TTITLE9=Gotta Pebble In My Shoe
TTITLE10=I'll Chase The Blues Away
TTITLE11=Cryin' Mood
TTITLE12=A Little Bit Later On
TTITLE13=If You Only Knew
TTITLE14=Take Another Guess
TTITLE15=Vote For Mr Rhythm
TTITLE16=Devoting My Time To You
TTITLE17=Ella
TTITLE18=When I Get Low I Het High
TTITLE19=If You Should Ever Leave
EXTD=
EXTT0=
EXTT1=
EXTT2=
EXTT3=
EXTT4=
EXTT5=
EXTT6=
EXTT7=
EXTT8=
EXTT9=
EXTT10=
EXTT11=
EXTT12=
EXTT13=
EXTT14=
EXTT15=
EXTT16=
EXTT17=
EXTT18=
EXTT19=
PLAYORDER=
